<svg id="svg" xmlns="http://www.w3.org/2000/svg" xmlns:xlink="http://www.w3.org/1999/xlink" width="400" height="181.8181818181818" viewBox="0, 0, 400,181.8181818181818"><g id="svgg"><path id="path0" d="M43.818 69.818 C 43.818 97.410,43.833 98.727,44.142 98.727 C 44.320 98.727,44.583 98.564,44.727 98.364 C 44.871 98.164,45.100 98.000,45.236 98.000 C 45.372 98.000,45.797 97.673,46.182 97.273 C 46.566 96.873,46.961 96.545,47.058 96.545 C 47.156 96.545,47.654 96.136,48.164 95.636 C 48.675 95.136,49.182 94.727,49.292 94.727 C 49.401 94.727,49.720 94.482,50.000 94.182 C 50.280 93.882,50.590 93.636,50.687 93.636 C 50.785 93.636,51.202 93.309,51.615 92.909 C 52.027 92.509,52.437 92.182,52.527 92.182 C 52.617 92.182,53.108 91.773,53.619 91.273 C 54.129 90.773,54.614 90.364,54.696 90.364 C 54.778 90.364,55.283 89.955,55.818 89.455 C 56.354 88.955,56.867 88.545,56.959 88.545 C 57.051 88.545,57.356 88.300,57.636 88.000 C 57.917 87.700,58.221 87.455,58.314 87.455 C 58.406 87.455,58.919 87.045,59.455 86.545 C 59.990 86.045,60.495 85.636,60.577 85.636 C 60.660 85.636,61.064 85.309,61.476 84.909 C 61.888 84.509,62.304 84.182,62.400 84.182 C 62.496 84.182,62.888 83.855,63.273 83.455 C 63.657 83.055,64.068 82.727,64.186 82.727 C 64.303 82.727,64.616 82.499,64.882 82.220 C 65.147 81.941,65.650 81.515,66.000 81.273 C 66.350 81.030,66.853 80.604,67.118 80.325 C 67.384 80.046,67.680 79.818,67.778 79.818 C 67.876 79.818,68.293 79.491,68.706 79.091 C 69.118 78.691,69.527 78.364,69.615 78.364 C 69.702 78.364,70.091 78.056,70.478 77.681 C 70.865 77.305,71.468 76.797,71.818 76.552 C 72.168 76.306,72.671 75.877,72.937 75.598 C 73.202 75.319,73.489 75.091,73.574 75.091 C 73.659 75.091,74.077 74.764,74.501 74.364 C 74.926 73.964,75.362 73.636,75.469 73.636 C 75.577 73.636,75.979 73.309,76.364 72.909 C 76.748 72.509,77.142 72.182,77.240 72.182 C 77.338 72.182,77.836 71.773,78.346 71.273 C 78.857 70.773,79.367 70.364,79.480 70.364 C 79.592 70.364,79.832 70.194,80.012 69.987 L 80.339 69.609 80.924 70.168 C 81.245 70.476,81.586 70.727,81.681 70.727 C 81.776 70.727,82.071 70.955,82.336 71.234 C 82.601 71.513,83.105 71.939,83.455 72.180 C 83.805 72.422,84.223 72.766,84.385 72.946 C 84.547 73.126,84.757 73.273,84.853 73.273 C 84.948 73.273,85.465 73.682,86.000 74.182 C 86.535 74.682,87.049 75.091,87.141 75.091 C 87.233 75.091,87.538 75.336,87.818 75.636 C 88.098 75.936,88.408 76.182,88.506 76.182 C 88.603 76.182,89.021 76.509,89.433 76.909 C 89.845 77.309,90.248 77.636,90.328 77.636 C 90.409 77.636,90.797 77.933,91.192 78.296 C 91.586 78.659,92.194 79.170,92.541 79.432 C 92.889 79.695,93.413 80.134,93.705 80.409 C 93.997 80.684,94.314 80.909,94.409 80.909 C 94.504 80.909,94.811 81.155,95.091 81.455 C 95.371 81.755,95.674 82.000,95.764 82.000 C 95.854 82.000,96.374 82.408,96.919 82.906 C 97.463 83.405,97.970 83.814,98.045 83.815 C 98.120 83.817,98.519 84.145,98.931 84.545 C 99.343 84.945,99.760 85.273,99.858 85.273 C 99.956 85.273,100.253 85.501,100.518 85.780 C 100.783 86.059,101.286 86.484,101.636 86.726 C 101.986 86.967,102.405 87.312,102.567 87.491 C 102.729 87.671,102.959 87.818,103.079 87.818 C 103.198 87.818,103.695 88.227,104.182 88.727 C 104.669 89.227,105.161 89.636,105.275 89.636 C 105.390 89.636,105.797 89.964,106.182 90.364 C 106.566 90.764,106.952 91.091,107.038 91.091 C 107.125 91.091,107.558 91.418,108.000 91.818 C 108.442 92.218,108.868 92.545,108.947 92.545 C 109.026 92.545,109.428 92.873,109.840 93.273 C 110.252 93.673,110.661 94.000,110.749 94.000 C 110.837 94.000,111.246 94.327,111.658 94.727 C 112.070 95.127,112.486 95.455,112.582 95.455 C 112.677 95.455,113.070 95.782,113.455 96.182 C 113.839 96.582,114.241 96.909,114.349 96.909 C 114.457 96.909,114.882 97.236,115.294 97.636 C 116.001 98.322,117.273 98.693,117.273 98.213 C 117.273 98.129,117.498 97.945,117.773 97.803 C 118.048 97.662,118.573 97.239,118.940 96.864 C 119.307 96.489,119.684 96.182,119.777 96.182 C 119.870 96.182,120.203 95.936,120.517 95.636 C 120.831 95.336,121.162 95.091,121.253 95.091 C 121.343 95.091,121.836 94.682,122.346 94.182 C 122.857 93.682,123.364 93.273,123.473 93.273 C 123.583 93.273,123.902 93.027,124.182 92.727 C 124.462 92.427,124.764 92.182,124.853 92.182 C 124.942 92.182,125.376 91.855,125.818 91.455 C 126.260 91.055,126.693 90.727,126.780 90.727 C 126.867 90.727,127.252 90.400,127.636 90.000 C 128.021 89.600,128.405 89.273,128.491 89.273 C 128.577 89.273,129.077 88.864,129.601 88.364 C 130.125 87.864,130.642 87.455,130.750 87.455 C 130.857 87.455,131.174 87.209,131.455 86.909 C 131.735 86.609,132.044 86.364,132.142 86.364 C 132.240 86.364,132.636 86.056,133.024 85.681 C 133.411 85.305,134.014 84.795,134.364 84.547 C 134.714 84.298,135.237 83.869,135.527 83.593 C 135.817 83.317,136.132 83.091,136.227 83.091 C 136.322 83.091,136.616 82.863,136.882 82.584 C 137.147 82.305,137.650 81.878,138.000 81.634 C 138.350 81.391,138.795 81.046,138.989 80.869 C 139.183 80.691,139.416 80.545,139.507 80.545 C 139.598 80.545,139.889 80.320,140.154 80.045 C 140.419 79.770,140.949 79.311,141.332 79.025 C 141.714 78.740,142.304 78.229,142.644 77.890 C 142.983 77.550,143.353 77.273,143.466 77.273 C 143.580 77.273,143.902 77.027,144.182 76.727 C 144.462 76.427,144.771 76.182,144.869 76.182 C 144.967 76.182,145.384 75.855,145.796 75.455 C 146.209 75.055,146.634 74.727,146.742 74.727 C 146.849 74.727,147.252 74.400,147.636 74.000 C 148.021 73.600,148.411 73.273,148.504 73.273 C 148.597 73.273,148.930 73.027,149.244 72.727 C 149.558 72.427,149.889 72.182,149.980 72.182 C 150.071 72.182,150.563 71.773,151.073 71.273 C 151.584 70.773,152.087 70.364,152.191 70.364 C 152.295 70.364,152.581 70.163,152.826 69.917 L 153.273 69.471 153.273 55.190 L 153.273 40.909 98.545 40.909 L 43.818 40.909 43.818 69.818 M220.182 84.909 C 220.182 108.788,220.243 120.909,220.364 120.909 C 220.464 120.909,220.545 121.318,220.545 121.818 C 220.545 122.318,220.627 122.727,220.727 122.727 C 220.827 122.727,220.909 123.055,220.909 123.455 C 220.909 123.855,220.991 124.182,221.091 124.182 C 221.191 124.182,221.273 124.427,221.273 124.727 C 221.273 125.027,221.355 125.273,221.455 125.273 C 221.555 125.273,221.636 125.436,221.636 125.636 C 221.636 125.836,221.718 126.000,221.818 126.000 C 221.918 126.000,222.000 126.164,222.000 126.364 C 222.000 126.564,222.068 126.727,222.151 126.727 C 222.234 126.727,222.418 126.952,222.559 127.227 C 222.909 127.909,225.023 130.000,225.362 130.000 C 225.513 130.000,225.636 130.082,225.636 130.182 C 225.636 130.282,225.757 130.364,225.904 130.364 C 226.051 130.364,226.462 130.527,226.818 130.727 C 227.174 130.927,227.704 131.091,227.995 131.091 C 228.286 131.091,228.575 131.173,228.636 131.273 C 228.705 131.384,230.184 131.455,232.465 131.455 C 234.822 131.455,236.182 131.388,236.182 131.273 C 236.182 131.173,236.591 131.091,237.091 131.091 C 237.591 131.091,238.000 131.009,238.000 130.909 C 238.000 130.809,238.245 130.727,238.545 130.727 C 238.845 130.727,239.091 130.645,239.091 130.545 C 239.091 130.445,239.336 130.364,239.636 130.364 C 239.936 130.364,240.182 130.282,240.182 130.182 C 240.182 130.082,240.345 130.000,240.545 130.000 C 240.745 130.000,240.909 129.918,240.909 129.818 C 240.909 129.718,240.999 129.636,241.108 129.636 C 241.846 129.636,242.364 128.882,242.364 127.806 C 242.364 127.208,242.283 126.727,242.182 126.727 C 242.082 126.727,242.000 126.446,242.000 126.102 C 242.000 125.758,241.918 125.425,241.818 125.364 C 241.718 125.302,241.636 124.975,241.636 124.636 C 241.636 124.298,241.555 123.971,241.455 123.909 C 241.355 123.847,241.273 123.556,241.273 123.262 C 241.273 122.759,241.229 122.727,240.545 122.727 C 240.145 122.727,239.818 122.809,239.818 122.909 C 239.818 123.009,239.618 123.091,239.374 123.091 C 239.130 123.091,238.880 123.173,238.818 123.273 C 238.756 123.373,238.465 123.455,238.171 123.455 C 237.877 123.455,237.636 123.536,237.636 123.636 C 237.636 123.748,236.727 123.818,235.273 123.818 C 233.818 123.818,232.909 123.748,232.909 123.636 C 232.909 123.536,232.787 123.455,232.637 123.455 C 232.268 123.455,231.223 122.400,230.926 121.727 C 230.793 121.427,230.613 121.040,230.524 120.866 C 230.436 120.692,230.364 120.022,230.364 119.377 C 230.364 118.731,230.282 118.153,230.182 118.091 C 230.062 118.017,230.000 106.271,230.000 83.444 L 230.000 48.909 225.091 48.909 L 220.182 48.909 220.182 84.909 M311.455 85.091 C 311.455 109.091,311.516 121.273,311.636 121.273 C 311.736 121.273,311.818 121.682,311.818 122.182 C 311.818 122.682,311.900 123.091,312.000 123.091 C 312.100 123.091,312.182 123.418,312.182 123.818 C 312.182 124.218,312.264 124.545,312.364 124.545 C 312.464 124.545,312.545 124.709,312.545 124.909 C 312.545 125.109,312.627 125.273,312.727 125.273 C 312.827 125.273,312.909 125.462,312.909 125.693 C 312.909 125.924,313.073 126.289,313.273 126.504 C 313.473 126.718,313.636 127.002,313.636 127.134 C 313.636 127.266,313.800 127.492,314.000 127.636 C 314.200 127.781,314.364 128.006,314.364 128.137 C 314.364 128.268,314.507 128.429,314.682 128.496 C 314.857 128.562,315.300 128.927,315.668 129.308 C 316.035 129.689,316.464 130.000,316.622 130.000 C 316.780 130.000,316.909 130.082,316.909 130.182 C 316.909 130.282,317.073 130.364,317.273 130.364 C 317.473 130.364,317.636 130.445,317.636 130.545 C 317.636 130.645,317.795 130.727,317.989 130.727 C 318.183 130.727,318.393 130.809,318.455 130.909 C 318.516 131.009,318.848 131.091,319.193 131.091 C 319.537 131.091,319.818 131.173,319.818 131.273 C 319.818 131.388,321.178 131.455,323.535 131.455 C 325.816 131.455,327.295 131.384,327.364 131.273 C 327.425 131.173,327.835 131.091,328.273 131.091 C 328.711 131.091,329.120 131.009,329.182 130.909 C 329.244 130.809,329.489 130.727,329.727 130.727 C 329.965 130.727,330.211 130.645,330.273 130.545 C 330.335 130.445,330.541 130.364,330.732 130.364 C 331.046 130.364,331.353 130.220,332.741 129.426 C 332.976 129.292,333.273 129.085,333.402 128.968 C 333.676 128.717,333.722 127.091,333.455 127.091 C 333.355 127.091,333.273 126.809,333.273 126.465 C 333.273 126.121,333.191 125.789,333.091 125.727 C 332.991 125.665,332.909 125.292,332.909 124.898 C 332.909 124.504,332.827 124.182,332.727 124.182 C 332.627 124.182,332.545 123.855,332.545 123.455 L 332.545 122.727 331.818 122.727 C 331.418 122.727,331.091 122.809,331.091 122.909 C 331.091 123.009,330.845 123.091,330.545 123.091 C 330.245 123.091,330.000 123.173,330.000 123.273 C 330.000 123.373,329.800 123.455,329.556 123.455 C 329.312 123.455,329.062 123.536,329.000 123.636 C 328.934 123.742,327.907 123.818,326.535 123.818 C 325.087 123.818,324.182 123.748,324.182 123.636 C 324.182 123.536,324.048 123.455,323.885 123.455 C 323.722 123.455,323.456 123.306,323.294 123.124 C 323.132 122.942,322.857 122.740,322.682 122.675 C 322.507 122.610,322.364 122.432,322.364 122.278 C 322.364 122.125,322.282 122.000,322.182 122.000 C 322.082 122.000,322.000 121.800,322.000 121.556 C 322.000 121.312,321.918 121.062,321.818 121.000 C 321.718 120.938,321.636 120.529,321.636 120.091 C 321.636 119.653,321.555 119.244,321.455 119.182 C 321.334 119.108,321.273 107.180,321.273 83.989 L 321.273 48.909 316.364 48.909 L 311.455 48.909 311.455 85.091 M78.091 89.109 C 76.991 90.014,75.968 90.851,75.818 90.968 C 75.667 91.086,75.176 91.466,74.727 91.813 C 74.277 92.161,73.868 92.490,73.818 92.546 C 73.768 92.601,73.018 93.196,72.151 93.867 C 71.283 94.539,70.465 95.194,70.332 95.324 C 70.200 95.453,69.395 96.113,68.545 96.790 C 67.695 97.467,66.851 98.144,66.668 98.293 C 66.486 98.443,65.299 99.388,64.032 100.392 C 62.764 101.397,61.551 102.368,61.335 102.549 C 61.119 102.730,57.642 105.517,53.608 108.744 C 49.573 111.970,46.232 114.657,46.182 114.714 C 46.132 114.772,45.627 115.171,45.061 115.601 C 43.700 116.636,43.818 115.193,43.818 130.742 L 43.818 144.545 98.545 144.545 L 153.273 144.545 153.273 116.000 C 153.273 100.300,153.209 87.455,153.131 87.455 C 152.984 87.455,152.158 87.986,152.000 88.183 C 151.924 88.277,150.944 89.064,146.727 92.419 C 146.576 92.539,146.085 92.922,145.636 93.270 C 145.186 93.619,144.709 94.009,144.575 94.136 C 144.442 94.264,144.032 94.593,143.666 94.866 C 143.300 95.140,142.891 95.467,142.757 95.594 C 142.623 95.720,142.214 96.047,141.848 96.320 C 141.482 96.593,141.141 96.860,141.091 96.913 C 141.041 96.966,140.632 97.292,140.182 97.636 C 139.732 97.981,139.323 98.308,139.273 98.364 C 139.223 98.419,138.814 98.748,138.364 99.096 C 137.915 99.443,137.383 99.862,137.182 100.027 C 136.982 100.191,135.776 101.152,134.503 102.161 C 133.230 103.171,132.003 104.152,131.776 104.342 C 131.549 104.532,129.236 106.377,126.636 108.442 C 124.036 110.507,121.786 112.297,121.636 112.419 C 121.486 112.541,120.995 112.927,120.545 113.275 C 120.095 113.624,119.686 113.956,119.636 114.014 C 119.093 114.638,116.648 116.344,116.480 116.215 C 116.089 115.911,107.909 109.417,107.542 109.117 C 107.340 108.953,106.877 108.594,106.512 108.321 C 106.148 108.047,105.740 107.715,105.607 107.583 C 105.473 107.451,102.459 105.022,98.909 102.186 C 92.427 97.007,90.714 95.627,90.545 95.450 C 90.495 95.397,90.087 95.070,89.637 94.723 C 89.187 94.375,88.696 93.993,88.546 93.874 C 88.007 93.446,85.176 91.183,84.909 90.966 C 82.499 89.007,80.458 87.456,80.296 87.459 C 80.183 87.462,79.191 88.205,78.091 89.109 " stroke="none" fill="#e41314" fill-rule="evenodd"></path><path id="path1" d="M196.909 53.818 C 196.909 53.918,196.748 54.000,196.551 54.000 C 195.858 54.000,193.647 55.614,193.632 56.130 C 193.630 56.209,193.468 56.477,193.273 56.727 C 193.077 56.977,192.915 57.448,192.913 57.773 C 192.911 58.098,192.827 58.364,192.727 58.364 C 192.619 58.364,192.545 59.057,192.545 60.080 C 192.545 61.028,192.627 61.847,192.727 61.909 C 192.827 61.971,192.909 62.262,192.909 62.556 C 192.909 62.850,192.991 63.091,193.091 63.091 C 193.191 63.091,193.273 63.215,193.273 63.368 C 193.273 63.728,195.181 65.636,195.542 65.636 C 195.694 65.636,195.818 65.718,195.818 65.818 C 195.818 65.918,195.982 66.000,196.182 66.000 C 196.382 66.000,196.545 66.082,196.545 66.182 C 196.545 66.295,197.636 66.364,199.455 66.364 C 201.273 66.364,202.364 66.295,202.364 66.182 C 202.364 66.082,202.527 66.000,202.727 66.000 C 202.927 66.000,203.091 65.918,203.091 65.818 C 203.091 65.718,203.215 65.636,203.368 65.636 C 203.728 65.636,205.636 63.728,205.636 63.368 C 205.636 63.215,205.718 63.091,205.818 63.091 C 205.918 63.091,206.000 62.932,206.000 62.738 C 206.000 62.544,206.082 62.335,206.182 62.273 C 206.286 62.208,206.364 61.274,206.364 60.091 C 206.364 58.907,206.286 57.973,206.182 57.909 C 206.082 57.847,206.000 57.597,206.000 57.353 C 206.000 57.109,205.918 56.909,205.818 56.909 C 205.718 56.909,205.636 56.779,205.636 56.621 C 205.636 56.274,203.692 54.364,203.339 54.364 C 203.203 54.364,203.091 54.282,203.091 54.182 C 203.091 54.082,202.845 54.000,202.545 54.000 C 202.245 54.000,202.000 53.918,202.000 53.818 C 202.000 53.706,201.030 53.636,199.455 53.636 C 197.879 53.636,196.909 53.706,196.909 53.818 M346.455 53.818 C 346.393 53.918,346.183 54.000,345.989 54.000 C 345.795 54.000,345.636 54.082,345.636 54.182 C 345.636 54.282,345.503 54.364,345.340 54.364 C 345.176 54.364,344.910 54.512,344.749 54.694 C 344.587 54.876,344.311 55.078,344.136 55.143 C 343.961 55.208,343.818 55.369,343.818 55.500 C 343.818 55.631,343.655 55.856,343.455 56.000 C 343.255 56.144,343.091 56.408,343.091 56.586 C 343.091 56.764,343.009 56.909,342.909 56.909 C 342.809 56.909,342.727 57.068,342.727 57.262 C 342.727 57.456,342.645 57.665,342.545 57.727 C 342.440 57.792,342.364 58.790,342.364 60.102 C 342.364 61.488,342.434 62.364,342.545 62.364 C 342.645 62.364,342.727 62.525,342.727 62.722 C 342.727 63.443,344.069 65.272,344.599 65.273 C 344.678 65.273,344.918 65.436,345.133 65.636 C 345.347 65.836,345.712 66.000,345.943 66.000 C 346.175 66.000,346.364 66.082,346.364 66.182 C 346.364 66.295,347.421 66.364,349.171 66.364 C 350.847 66.364,352.024 66.290,352.091 66.182 C 352.153 66.082,352.362 66.000,352.556 66.000 C 352.750 66.000,352.909 65.918,352.909 65.818 C 352.909 65.718,353.019 65.636,353.153 65.636 C 353.421 65.636,355.088 64.129,355.095 63.882 C 355.097 63.797,355.259 63.523,355.455 63.273 C 355.650 63.023,355.812 62.552,355.814 62.227 C 355.816 61.902,355.900 61.636,356.000 61.636 C 356.107 61.636,356.182 61.004,356.182 60.102 C 356.182 59.258,356.100 58.516,356.000 58.455 C 355.900 58.393,355.818 58.102,355.818 57.807 C 355.818 57.513,355.736 57.273,355.636 57.273 C 355.536 57.273,355.455 57.109,355.455 56.909 C 355.455 56.709,355.373 56.545,355.273 56.545 C 355.173 56.545,355.091 56.431,355.091 56.291 C 355.091 55.960,353.858 54.727,353.527 54.727 C 353.387 54.727,353.273 54.645,353.273 54.545 C 353.273 54.445,353.109 54.364,352.909 54.364 C 352.709 54.364,352.545 54.282,352.545 54.182 C 352.545 54.082,352.382 54.000,352.182 54.000 C 351.982 54.000,351.818 53.918,351.818 53.818 C 351.818 53.705,350.822 53.636,349.193 53.636 C 347.638 53.636,346.521 53.711,346.455 53.818 M273.727 74.545 C 273.665 74.645,273.292 74.727,272.898 74.727 C 272.504 74.727,272.182 74.809,272.182 74.909 C 272.182 75.009,271.900 75.091,271.556 75.091 C 271.212 75.091,270.880 75.173,270.818 75.273 C 270.756 75.373,270.465 75.455,270.171 75.455 C 269.877 75.455,269.636 75.536,269.636 75.636 C 269.636 75.736,269.473 75.818,269.273 75.818 C 269.073 75.818,268.909 75.900,268.909 76.000 C 268.909 76.100,268.745 76.182,268.545 76.182 C 268.345 76.182,268.182 76.264,268.182 76.364 C 268.182 76.464,268.018 76.545,267.818 76.545 C 267.618 76.545,267.455 76.627,267.455 76.727 C 267.455 76.827,267.291 76.909,267.091 76.909 C 266.891 76.909,266.727 76.991,266.727 77.091 C 266.727 77.191,266.582 77.273,266.404 77.273 C 266.226 77.273,265.962 77.436,265.818 77.636 C 265.674 77.836,265.443 78.000,265.306 78.000 C 265.168 78.000,264.826 78.245,264.545 78.545 C 264.265 78.845,263.957 79.091,263.861 79.091 C 263.631 79.091,261.636 81.009,261.636 81.230 C 261.636 81.324,261.391 81.657,261.091 81.971 C 260.791 82.285,260.545 82.666,260.545 82.817 C 260.545 82.967,260.464 83.091,260.364 83.091 C 260.250 83.091,260.182 81.939,260.182 80.000 C 260.182 78.061,260.114 76.909,260.000 76.909 C 259.900 76.909,259.818 76.582,259.818 76.182 L 259.818 75.455 255.273 75.455 L 250.727 75.455 250.727 77.717 C 250.727 79.028,250.804 80.026,250.909 80.091 C 251.029 80.165,251.091 93.184,251.091 118.556 L 251.091 156.909 256.182 156.909 L 261.273 156.909 261.273 140.727 C 261.273 131.827,261.319 124.545,261.377 124.545 C 261.546 124.545,262.000 125.050,262.000 125.239 C 262.000 125.483,264.293 127.818,264.533 127.818 C 264.642 127.818,264.987 128.064,265.301 128.364 C 265.615 128.664,265.983 128.909,266.118 128.909 C 266.253 128.909,266.364 128.991,266.364 129.091 C 266.364 129.191,266.527 129.273,266.727 129.273 C 266.927 129.273,267.091 129.355,267.091 129.455 C 267.091 129.555,267.215 129.636,267.366 129.636 C 267.517 129.636,267.804 129.718,268.002 129.818 C 268.201 129.918,268.526 130.082,268.725 130.182 C 268.923 130.282,269.210 130.364,269.361 130.364 C 269.513 130.364,269.636 130.445,269.636 130.545 C 269.636 130.645,269.964 130.727,270.364 130.727 C 270.764 130.727,271.091 130.809,271.091 130.909 C 271.091 131.009,271.500 131.091,272.000 131.091 C 272.500 131.091,272.909 131.173,272.909 131.273 C 272.909 131.389,274.485 131.455,277.273 131.455 C 280.061 131.455,281.636 131.389,281.636 131.273 C 281.636 131.173,282.045 131.091,282.545 131.091 C 283.045 131.091,283.455 131.009,283.455 130.909 C 283.455 130.809,283.700 130.727,284.000 130.727 C 284.300 130.727,284.545 130.645,284.545 130.545 C 284.545 130.445,284.791 130.364,285.091 130.364 C 285.391 130.364,285.636 130.282,285.636 130.182 C 285.636 130.082,285.820 129.998,286.045 129.996 C 286.270 129.994,286.659 129.832,286.909 129.636 C 287.159 129.441,287.466 129.279,287.591 129.277 C 287.716 129.275,287.818 129.191,287.818 129.091 C 287.818 128.991,287.982 128.909,288.182 128.909 C 288.382 128.909,288.545 128.827,288.545 128.727 C 288.545 128.627,288.691 128.545,288.869 128.545 C 289.047 128.545,289.310 128.382,289.455 128.182 C 289.599 127.982,289.811 127.818,289.927 127.818 C 290.043 127.818,290.475 127.491,290.887 127.091 C 291.300 126.691,291.712 126.364,291.803 126.364 C 291.895 126.364,292.325 125.954,292.758 125.452 C 293.191 124.951,293.893 124.161,294.318 123.696 C 294.743 123.232,295.091 122.760,295.091 122.648 C 295.091 122.536,295.255 122.326,295.455 122.182 C 295.655 122.038,295.818 121.774,295.818 121.596 C 295.818 121.418,295.887 121.273,295.971 121.273 C 296.056 121.273,296.322 120.884,296.562 120.409 C 296.803 119.934,297.061 119.518,297.136 119.485 C 297.211 119.452,297.273 119.267,297.273 119.076 C 297.273 118.884,297.355 118.727,297.455 118.727 C 297.555 118.727,297.636 118.568,297.636 118.374 C 297.636 118.180,297.718 117.971,297.818 117.909 C 297.918 117.847,298.000 117.597,298.000 117.353 C 298.000 117.109,298.082 116.909,298.182 116.909 C 298.282 116.909,298.364 116.664,298.364 116.364 C 298.364 116.064,298.445 115.818,298.545 115.818 C 298.645 115.818,298.727 115.573,298.727 115.273 C 298.727 114.973,298.809 114.727,298.909 114.727 C 299.009 114.727,299.091 114.400,299.091 114.000 C 299.091 113.600,299.173 113.273,299.273 113.273 C 299.373 113.273,299.455 112.945,299.455 112.545 C 299.455 112.145,299.536 111.818,299.636 111.818 C 299.737 111.818,299.818 111.333,299.818 110.727 C 299.818 110.121,299.899 109.636,300.000 109.636 C 300.108 109.636,300.182 108.970,300.182 108.000 C 300.182 107.030,300.256 106.364,300.364 106.364 C 300.479 106.364,300.545 105.030,300.545 102.727 C 300.545 100.424,300.479 99.091,300.364 99.091 C 300.255 99.091,300.182 98.398,300.182 97.374 C 300.182 96.426,300.100 95.608,300.000 95.545 C 299.900 95.484,299.818 94.993,299.818 94.455 C 299.818 93.916,299.736 93.425,299.636 93.364 C 299.536 93.302,299.455 92.975,299.455 92.636 C 299.455 92.298,299.373 91.971,299.273 91.909 C 299.173 91.847,299.091 91.561,299.091 91.273 C 299.091 90.985,299.009 90.698,298.909 90.636 C 298.809 90.575,298.727 90.288,298.727 90.000 C 298.727 89.712,298.645 89.425,298.545 89.364 C 298.445 89.302,298.364 89.056,298.364 88.818 C 298.364 88.580,298.282 88.335,298.182 88.273 C 298.082 88.211,298.000 88.002,298.000 87.807 C 298.000 87.613,297.918 87.455,297.818 87.455 C 297.718 87.455,297.636 87.291,297.636 87.091 C 297.636 86.891,297.555 86.727,297.455 86.727 C 297.355 86.727,297.273 86.564,297.273 86.364 C 297.273 86.164,297.191 86.000,297.091 86.000 C 296.991 86.000,296.909 85.836,296.909 85.636 C 296.909 85.436,296.827 85.273,296.727 85.273 C 296.627 85.273,296.545 85.109,296.545 84.909 C 296.545 84.709,296.464 84.545,296.364 84.545 C 296.264 84.545,296.182 84.438,296.182 84.307 C 296.182 84.176,296.018 83.893,295.818 83.678 C 295.618 83.464,295.455 83.215,295.455 83.125 C 295.455 83.036,295.209 82.706,294.909 82.392 C 294.609 82.078,294.364 81.742,294.364 81.646 C 294.364 81.387,291.295 78.364,291.032 78.364 C 290.909 78.364,290.690 78.200,290.545 78.000 C 290.401 77.800,290.156 77.636,290.000 77.636 C 289.844 77.636,289.599 77.473,289.455 77.273 C 289.310 77.073,289.047 76.909,288.869 76.909 C 288.691 76.909,288.545 76.827,288.545 76.727 C 288.545 76.627,288.382 76.545,288.182 76.545 C 287.982 76.545,287.818 76.464,287.818 76.364 C 287.818 76.264,287.655 76.182,287.455 76.182 C 287.255 76.182,287.091 76.100,287.091 76.000 C 287.091 75.900,286.845 75.818,286.545 75.818 C 286.245 75.818,286.000 75.736,286.000 75.636 C 286.000 75.536,285.800 75.455,285.556 75.455 C 285.312 75.455,285.062 75.373,285.000 75.273 C 284.938 75.173,284.647 75.091,284.353 75.091 C 284.059 75.091,283.818 75.009,283.818 74.909 C 283.818 74.809,283.409 74.727,282.909 74.727 C 282.409 74.727,282.000 74.645,282.000 74.545 C 282.000 74.430,280.519 74.364,277.920 74.364 C 275.396 74.364,273.797 74.433,273.727 74.545 M194.364 102.909 L 194.364 130.364 199.455 130.364 L 204.545 130.364 204.545 102.909 L 204.545 75.455 199.455 75.455 L 194.364 75.455 194.364 102.909 M344.182 102.909 L 344.182 130.369 349.227 130.321 L 354.273 130.273 354.273 102.909 L 354.273 75.545 349.227 75.497 L 344.182 75.449 344.182 102.909 M155.818 77.455 C 155.818 77.555,155.687 77.636,155.527 77.636 C 155.368 77.636,155.008 77.882,154.727 78.182 C 154.447 78.482,154.138 78.727,154.040 78.727 C 153.942 78.727,153.525 79.055,153.113 79.455 C 152.700 79.855,152.291 80.182,152.204 80.182 C 152.116 80.182,151.707 80.509,151.294 80.909 C 150.882 81.309,150.463 81.636,150.364 81.636 C 150.264 81.636,149.845 81.964,149.433 82.364 C 149.021 82.764,148.605 83.091,148.509 83.091 C 148.413 83.091,148.021 83.418,147.636 83.818 C 147.252 84.218,146.859 84.545,146.763 84.545 C 146.668 84.545,146.252 84.873,145.840 85.273 C 145.428 85.673,145.002 86.000,144.895 86.000 C 144.787 86.000,144.384 86.327,144.000 86.727 C 143.616 87.127,143.207 87.455,143.091 87.455 C 142.975 87.455,142.566 87.782,142.182 88.182 C 141.797 88.582,141.405 88.909,141.309 88.909 C 141.213 88.909,140.798 89.236,140.385 89.636 C 139.973 90.036,139.564 90.364,139.476 90.364 C 139.388 90.364,138.979 90.691,138.567 91.091 C 138.155 91.491,137.730 91.818,137.622 91.818 C 137.514 91.818,137.112 92.145,136.727 92.545 C 136.343 92.945,135.932 93.273,135.814 93.273 C 135.697 93.273,135.371 93.518,135.091 93.818 C 134.811 94.118,134.501 94.364,134.404 94.364 C 134.306 94.364,133.888 94.691,133.476 95.091 C 133.064 95.491,132.639 95.818,132.531 95.818 C 132.423 95.818,132.021 96.145,131.636 96.545 C 131.252 96.945,130.843 97.273,130.727 97.273 C 130.612 97.273,130.203 97.600,129.818 98.000 C 129.434 98.400,129.041 98.727,128.945 98.727 C 128.849 98.727,128.434 99.055,128.022 99.455 C 127.610 99.855,127.200 100.182,127.113 100.182 C 127.025 100.182,126.616 100.509,126.204 100.909 C 125.791 101.309,125.366 101.636,125.258 101.636 C 125.151 101.636,124.748 101.964,124.364 102.364 C 123.979 102.764,123.587 103.091,123.491 103.091 C 123.395 103.091,122.979 103.418,122.567 103.818 C 122.155 104.218,121.730 104.545,121.622 104.545 C 121.514 104.545,121.112 104.873,120.727 105.273 C 120.343 105.673,119.934 106.000,119.818 106.000 C 119.703 106.000,119.293 106.327,118.909 106.727 C 118.525 107.127,118.114 107.455,117.996 107.455 C 117.879 107.455,117.548 107.706,117.261 108.013 L 116.739 108.571 116.335 108.195 C 116.113 107.988,115.865 107.818,115.784 107.818 C 115.703 107.818,115.300 107.491,114.887 107.091 C 114.475 106.691,114.058 106.364,113.960 106.364 C 113.862 106.364,113.553 106.118,113.273 105.818 C 112.992 105.518,112.674 105.273,112.564 105.273 C 112.455 105.273,111.948 104.864,111.437 104.364 C 110.926 103.864,110.427 103.455,110.327 103.455 C 110.228 103.455,109.917 103.209,109.636 102.909 C 109.356 102.609,109.031 102.364,108.913 102.364 C 108.795 102.364,108.384 102.036,108.000 101.636 C 107.616 101.236,107.227 100.909,107.137 100.909 C 107.047 100.909,106.535 100.500,106.000 100.000 C 105.465 99.500,104.953 99.091,104.863 99.091 C 104.773 99.091,104.384 98.764,104.000 98.364 C 103.616 97.964,103.213 97.636,103.105 97.636 C 102.998 97.636,102.572 97.309,102.160 96.909 C 101.748 96.509,101.339 96.182,101.251 96.182 C 101.163 96.182,100.754 95.855,100.342 95.455 C 99.930 95.055,99.521 94.727,99.433 94.727 C 99.345 94.727,98.936 94.400,98.524 94.000 C 98.112 93.600,97.696 93.273,97.600 93.273 C 97.504 93.273,97.112 92.945,96.727 92.545 C 96.343 92.145,95.932 91.818,95.814 91.818 C 95.697 91.818,95.371 91.573,95.091 91.273 C 94.811 90.973,94.486 90.727,94.370 90.727 C 94.253 90.727,93.760 90.318,93.273 89.818 C 92.786 89.318,92.294 88.909,92.179 88.909 C 92.065 88.909,91.657 88.582,91.273 88.182 C 90.888 87.782,90.479 87.455,90.364 87.455 C 90.248 87.455,89.839 87.127,89.455 86.727 C 89.070 86.327,88.668 86.000,88.560 86.000 C 88.452 86.000,88.027 85.673,87.615 85.273 C 87.202 84.873,86.787 84.545,86.691 84.545 C 86.595 84.545,86.203 84.218,85.818 83.818 C 85.434 83.418,85.048 83.091,84.962 83.091 C 84.875 83.091,84.442 82.764,84.000 82.364 C 83.558 81.964,83.125 81.636,83.038 81.636 C 82.952 81.636,82.566 81.309,82.182 80.909 C 81.797 80.509,81.354 80.182,81.196 80.182 C 81.038 80.182,80.909 80.100,80.909 80.000 C 80.909 79.900,80.664 79.818,80.364 79.818 C 80.064 79.818,79.818 79.900,79.818 80.000 C 79.818 80.100,79.687 80.182,79.527 80.182 C 79.368 80.182,79.008 80.427,78.727 80.727 C 78.447 81.027,78.138 81.273,78.040 81.273 C 77.942 81.273,77.525 81.600,77.113 82.000 C 76.700 82.400,76.290 82.727,76.200 82.727 C 76.110 82.727,75.619 83.136,75.108 83.636 C 74.598 84.136,74.092 84.545,73.985 84.545 C 73.877 84.545,73.475 84.873,73.091 85.273 C 72.707 85.673,72.297 86.000,72.182 86.000 C 72.066 86.000,71.657 86.327,71.273 86.727 C 70.888 87.127,70.479 87.455,70.364 87.455 C 70.248 87.455,69.839 87.782,69.455 88.182 C 69.070 88.582,68.659 88.909,68.542 88.909 C 68.424 88.909,68.098 89.155,67.818 89.455 C 67.538 89.755,67.227 90.000,67.127 90.000 C 67.028 90.000,66.528 90.409,66.018 90.909 C 65.507 91.409,65.001 91.818,64.894 91.818 C 64.787 91.818,64.384 92.145,64.000 92.545 C 63.616 92.945,63.205 93.273,63.087 93.273 C 62.969 93.273,62.644 93.518,62.364 93.818 C 62.083 94.118,61.772 94.364,61.673 94.364 C 61.573 94.364,61.074 94.773,60.563 95.273 C 60.052 95.773,59.547 96.182,59.439 96.182 C 59.332 96.182,58.930 96.509,58.545 96.909 C 58.161 97.309,57.752 97.636,57.636 97.636 C 57.521 97.636,57.112 97.964,56.727 98.364 C 56.343 98.764,55.934 99.091,55.818 99.091 C 55.703 99.091,55.293 99.418,54.909 99.818 C 54.525 100.218,54.122 100.545,54.014 100.545 C 53.907 100.545,53.481 100.873,53.069 101.273 C 52.657 101.673,52.241 102.000,52.146 102.000 C 52.050 102.000,51.657 102.327,51.273 102.727 C 50.888 103.127,50.478 103.455,50.360 103.455 C 50.242 103.455,49.917 103.700,49.636 104.000 C 49.356 104.300,49.045 104.545,48.945 104.545 C 48.846 104.545,48.346 104.955,47.836 105.455 C 47.325 105.955,46.836 106.364,46.748 106.364 C 46.661 106.364,46.252 106.691,45.840 107.091 C 45.428 107.491,45.001 107.818,44.891 107.818 C 44.781 107.818,44.462 108.064,44.182 108.364 C 43.902 108.664,43.591 108.909,43.491 108.909 C 43.391 108.909,42.892 109.318,42.381 109.818 C 41.871 110.318,41.363 110.727,41.254 110.727 C 41.144 110.727,40.826 110.973,40.545 111.273 C 40.265 111.573,39.954 111.818,39.855 111.818 C 39.755 111.818,39.255 112.227,38.745 112.727 C 38.234 113.227,37.729 113.636,37.621 113.636 C 37.514 113.636,37.112 113.964,36.727 114.364 C 36.343 114.764,35.938 115.091,35.826 115.091 C 34.680 115.091,34.023 117.172,34.909 118.000 C 35.209 118.280,35.455 118.640,35.455 118.800 C 35.455 118.960,35.536 119.091,35.636 119.091 C 35.736 119.091,35.818 119.202,35.818 119.337 C 35.818 119.472,36.064 119.839,36.364 120.153 C 36.664 120.467,36.909 120.812,36.909 120.920 C 36.909 121.269,37.416 121.636,37.896 121.636 C 38.153 121.636,38.364 121.555,38.364 121.455 C 38.364 121.355,38.478 121.273,38.618 121.273 C 38.758 121.273,39.290 120.864,39.801 120.364 C 40.311 119.864,40.793 119.455,40.872 119.455 C 40.950 119.455,41.376 119.127,41.818 118.727 C 42.260 118.327,42.690 118.000,42.774 118.000 C 43.018 118.000,43.764 117.184,43.894 116.774 C 43.960 116.567,44.481 116.042,45.052 115.608 C 45.624 115.174,46.132 114.772,46.182 114.714 C 46.232 114.657,49.573 111.970,53.608 108.744 C 57.642 105.517,61.119 102.730,61.335 102.549 C 61.551 102.368,62.764 101.397,64.032 100.392 C 65.299 99.388,66.486 98.443,66.668 98.293 C 66.851 98.144,67.695 97.467,68.545 96.790 C 69.395 96.113,70.200 95.453,70.332 95.324 C 70.465 95.194,71.283 94.539,72.151 93.867 C 73.018 93.196,73.768 92.601,73.818 92.546 C 73.868 92.490,74.277 92.161,74.727 91.813 C 75.176 91.466,75.667 91.086,75.818 90.968 C 75.968 90.851,76.991 90.014,78.091 89.109 C 79.191 88.205,80.183 87.462,80.296 87.459 C 80.458 87.456,82.499 89.007,84.909 90.966 C 85.176 91.183,88.007 93.446,88.546 93.874 C 88.696 93.993,89.187 94.375,89.637 94.723 C 90.087 95.070,90.495 95.397,90.545 95.450 C 90.714 95.627,92.427 97.007,98.909 102.186 C 102.459 105.022,105.473 107.451,105.607 107.583 C 105.740 107.715,106.148 108.047,106.512 108.321 C 106.877 108.594,107.340 108.953,107.542 109.117 C 107.909 109.417,116.089 115.911,116.480 116.215 C 116.648 116.344,119.093 114.638,119.636 114.014 C 119.686 113.956,120.095 113.624,120.545 113.275 C 120.995 112.927,121.486 112.541,121.636 112.419 C 121.786 112.297,124.036 110.507,126.636 108.442 C 129.236 106.377,131.549 104.532,131.776 104.342 C 132.003 104.152,133.230 103.171,134.503 102.161 C 135.776 101.152,136.982 100.191,137.182 100.027 C 137.383 99.862,137.915 99.443,138.364 99.096 C 138.814 98.748,139.223 98.419,139.273 98.364 C 139.323 98.308,139.732 97.981,140.182 97.636 C 140.632 97.292,141.041 96.966,141.091 96.913 C 141.141 96.860,141.482 96.593,141.848 96.320 C 142.214 96.047,142.623 95.720,142.757 95.594 C 142.891 95.467,143.300 95.140,143.666 94.866 C 144.032 94.593,144.442 94.264,144.575 94.136 C 144.709 94.009,145.186 93.619,145.636 93.270 C 146.085 92.922,146.576 92.539,146.727 92.419 C 150.944 89.064,151.924 88.277,152.000 88.183 C 152.254 87.867,153.036 87.455,153.382 87.455 C 153.598 87.455,154.112 87.127,154.524 86.727 C 154.936 86.327,155.361 86.000,155.469 86.000 C 155.577 86.000,155.979 85.673,156.364 85.273 C 156.748 84.873,157.157 84.545,157.273 84.545 C 157.388 84.545,157.797 84.218,158.182 83.818 C 158.566 83.418,158.948 83.091,159.031 83.091 C 159.867 83.089,160.469 81.560,159.818 81.091 C 159.618 80.947,159.455 80.718,159.455 80.582 C 159.455 80.446,159.127 80.021,158.727 79.636 C 158.327 79.252,158.000 78.865,158.000 78.777 C 158.000 78.378,156.747 77.273,156.294 77.273 C 156.032 77.273,155.818 77.355,155.818 77.455 M278.000 82.545 C 278.000 82.645,278.409 82.727,278.909 82.727 C 279.409 82.727,279.818 82.809,279.818 82.909 C 279.818 83.009,280.064 83.091,280.364 83.091 C 280.664 83.091,280.909 83.173,280.909 83.273 C 280.909 83.373,281.024 83.455,281.165 83.455 C 281.467 83.455,282.973 84.213,283.061 84.409 C 283.094 84.484,283.230 84.545,283.362 84.545 C 283.681 84.545,286.727 87.544,286.727 87.858 C 286.727 87.992,286.891 88.219,287.091 88.364 C 287.291 88.508,287.455 88.771,287.455 88.949 C 287.455 89.127,287.536 89.273,287.636 89.273 C 287.736 89.273,287.818 89.436,287.818 89.636 C 287.818 89.836,287.900 90.000,288.000 90.000 C 288.100 90.000,288.182 90.164,288.182 90.364 C 288.182 90.564,288.264 90.727,288.364 90.727 C 288.464 90.727,288.545 90.891,288.545 91.091 C 288.545 91.291,288.627 91.455,288.727 91.455 C 288.827 91.455,288.909 91.700,288.909 92.000 C 288.909 92.300,288.991 92.545,289.091 92.545 C 289.191 92.545,289.273 92.786,289.273 93.080 C 289.273 93.374,289.355 93.665,289.455 93.727 C 289.555 93.789,289.636 94.157,289.636 94.545 C 289.636 94.934,289.718 95.302,289.818 95.364 C 289.918 95.425,290.000 95.875,290.000 96.364 C 290.000 96.852,290.082 97.302,290.182 97.364 C 290.296 97.434,290.364 99.396,290.364 102.647 C 290.364 105.973,290.299 107.818,290.182 107.818 C 290.081 107.818,290.000 108.303,290.000 108.909 C 290.000 109.515,289.919 110.000,289.818 110.000 C 289.718 110.000,289.636 110.322,289.636 110.717 C 289.636 111.111,289.555 111.484,289.455 111.545 C 289.355 111.607,289.273 111.859,289.273 112.104 C 289.273 112.534,289.215 112.700,288.756 113.588 C 288.640 113.812,288.545 114.160,288.545 114.361 C 288.545 114.563,288.464 114.727,288.364 114.727 C 288.264 114.727,288.182 114.891,288.182 115.091 C 288.182 115.291,288.100 115.455,288.000 115.455 C 287.900 115.455,287.818 115.618,287.818 115.818 C 287.818 116.018,287.736 116.182,287.636 116.182 C 287.536 116.182,287.455 116.345,287.455 116.545 C 287.455 116.745,287.373 116.909,287.273 116.909 C 287.173 116.909,287.091 117.055,287.091 117.233 C 287.091 117.411,286.927 117.674,286.727 117.818 C 286.527 117.962,286.364 118.186,286.364 118.315 C 286.364 118.596,283.363 121.636,283.086 121.636 C 282.980 121.636,282.718 121.800,282.504 122.000 C 282.289 122.200,282.006 122.364,281.875 122.364 C 281.744 122.364,281.636 122.445,281.636 122.545 C 281.636 122.645,281.473 122.727,281.273 122.727 C 281.073 122.727,280.909 122.809,280.909 122.909 C 280.909 123.009,280.664 123.091,280.364 123.091 C 280.064 123.091,279.818 123.173,279.818 123.273 C 279.818 123.373,279.537 123.455,279.193 123.455 C 278.848 123.455,278.516 123.536,278.455 123.636 C 278.388 123.744,277.301 123.818,275.807 123.818 C 274.239 123.818,273.273 123.749,273.273 123.636 C 273.273 123.536,272.950 123.455,272.556 123.455 C 272.162 123.455,271.789 123.373,271.727 123.273 C 271.665 123.173,271.333 123.091,270.989 123.091 C 270.645 123.091,270.364 123.009,270.364 122.909 C 270.364 122.809,270.200 122.727,270.000 122.727 C 269.800 122.727,269.636 122.645,269.636 122.545 C 269.636 122.445,269.473 122.364,269.273 122.364 C 269.073 122.364,268.909 122.282,268.909 122.182 C 268.909 122.082,268.745 122.000,268.545 122.000 C 268.345 122.000,268.182 121.932,268.182 121.849 C 268.182 121.766,267.958 121.582,267.685 121.440 C 267.072 121.121,264.545 118.629,264.545 118.342 C 264.545 118.228,264.402 118.001,264.226 117.840 C 264.050 117.678,263.791 117.320,263.650 117.045 C 263.509 116.770,263.325 116.545,263.242 116.545 C 263.159 116.545,263.091 116.346,263.091 116.102 C 263.091 115.858,263.009 115.607,262.909 115.545 C 262.809 115.484,262.727 115.274,262.727 115.080 C 262.727 114.886,262.645 114.727,262.545 114.727 C 262.445 114.727,262.364 114.564,262.364 114.364 C 262.364 114.164,262.282 114.000,262.182 114.000 C 262.082 114.000,262.000 113.673,262.000 113.273 C 262.000 112.873,261.918 112.545,261.818 112.545 C 261.718 112.545,261.636 112.218,261.636 111.818 C 261.636 111.418,261.555 111.091,261.455 111.091 C 261.336 111.091,261.273 108.185,261.273 102.738 C 261.273 97.366,261.338 94.345,261.455 94.273 C 261.555 94.211,261.636 93.879,261.636 93.535 C 261.636 93.191,261.718 92.909,261.818 92.909 C 261.918 92.909,262.000 92.628,262.000 92.283 C 262.000 91.939,262.082 91.607,262.182 91.545 C 262.282 91.484,262.364 91.274,262.364 91.080 C 262.364 90.886,262.445 90.727,262.545 90.727 C 262.645 90.727,262.727 90.564,262.727 90.364 C 262.727 90.164,262.809 90.000,262.909 90.000 C 263.009 90.000,263.091 89.877,263.091 89.726 C 263.091 89.575,263.336 89.194,263.636 88.880 C 263.936 88.567,264.182 88.235,264.182 88.144 C 264.182 87.899,267.269 84.909,267.522 84.909 C 267.641 84.909,267.856 84.745,268.000 84.545 C 268.144 84.345,268.408 84.182,268.586 84.182 C 268.764 84.182,268.910 84.120,268.911 84.045 C 268.913 83.842,269.830 83.455,270.309 83.455 C 270.539 83.455,270.727 83.373,270.727 83.273 C 270.727 83.173,270.973 83.091,271.273 83.091 C 271.573 83.091,271.818 83.009,271.818 82.909 C 271.818 82.809,272.227 82.727,272.727 82.727 C 273.227 82.727,273.636 82.645,273.636 82.545 C 273.636 82.434,274.485 82.364,275.818 82.364 C 277.152 82.364,278.000 82.434,278.000 82.545 " stroke="none" fill="#343333" fill-rule="evenodd"></path></g></svg>